# Blender 4.4.1
# www.blender.org
mtllib BoneOctahedron.mtl
o 立方体
v -0.029473 0.006716 0.024880
v -0.013500 1.007816 0.011396
v -0.029473 0.006716 -0.024880
v -0.013500 1.007816 -0.011396
v 0.029473 0.006716 0.024880
v 0.013500 1.007816 0.011396
v 0.029473 0.006716 -0.024880
v 0.013500 1.007816 -0.011396
v -0.121343 0.101900 0.102434
v -0.121343 0.101900 -0.102434
v 0.121343 0.101900 -0.102434
v 0.121343 0.101900 0.102434
vn -0.9930 0.1182 -0.0000
vn -0.0000 0.1000 -0.9950
vn 0.9930 0.1182 -0.0000
vn -0.0000 0.1000 0.9950
vn -0.0000 -1.0000 -0.0000
vn -0.0000 1.0000 -0.0000
vn -0.0000 -0.6317 0.7752
vn 0.7195 -0.6945 -0.0000
vn -0.0000 -0.6317 -0.7752
vn -0.7195 -0.6945 -0.0000
vt 0.625000 0.000000
vt 0.398770 0.250000
vt 0.398770 0.000000
vt 0.625000 0.250000
vt 0.398770 0.500000
vt 0.625000 0.500000
vt 0.398770 0.750000
vt 0.625000 0.750000
vt 0.398770 1.000000
vt 0.375000 0.500000
vt 0.125000 0.750000
vt 0.125000 0.500000
vt 0.875000 0.500000
vt 0.375000 1.000000
vt 0.375000 0.750000
vt 0.375000 0.250000
vt 0.375000 0.000000
vt 0.625000 1.000000
vt 0.875000 0.750000
s 0
f 2/1/1 10/2/1 9/3/1
f 4/4/2 11/5/2 10/2/2
f 8/6/3 12/7/3 11/5/3
f 6/8/4 9/9/4 12/7/4
f 7/10/5 1/11/5 3/12/5
f 4/13/6 6/8/6 8/6/6
f 12/7/7 1/14/7 5/15/7
f 11/5/8 5/15/8 7/10/8
f 10/2/9 7/10/9 3/16/9
f 9/3/10 3/16/10 1/17/10
f 2/1/1 4/4/1 10/2/1
f 4/4/2 8/6/2 11/5/2
f 8/6/3 6/8/3 12/7/3
f 6/8/4 2/18/4 9/9/4
f 7/10/5 5/15/5 1/11/5
f 4/13/6 2/19/6 6/8/6
f 12/7/7 9/9/7 1/14/7
f 11/5/8 12/7/8 5/15/8
f 10/2/9 11/5/9 7/10/9
f 9/3/10 10/2/10 3/16/10
